# Blender v2.79 (sub 0) OBJ File: ''
# www.blender.org
mtllib pannal.mtl
o pannal_Cylinder
v -0.042952 5.855893 -0.415887
v 0.089839 5.855655 -0.416945
v -0.044442 5.745671 -0.577993
v 0.088349 5.745433 -0.579051
v -0.045789 5.605941 -0.715481
v 0.087002 5.605701 -0.716539
v -0.046941 5.442072 -0.823068
v 0.085850 5.441833 -0.824126
v -0.047854 5.260360 -0.896618
v 0.084937 5.260121 -0.897677
v -0.048493 5.067791 -0.933307
v 0.084298 5.067553 -0.934366
v -0.048833 4.871763 -0.931723
v 0.083958 4.871524 -0.932782
v -0.048862 4.679811 -0.891928
v 0.083930 4.679572 -0.892986
v -0.048576 4.499310 -0.815450
v 0.084215 4.499072 -0.816509
v -0.047989 4.337197 -0.705230
v 0.084802 4.336958 -0.706288
v -0.047123 4.199703 -0.565501
v 0.085668 4.199465 -0.566559
v -0.046011 4.092111 -0.401635
v 0.086781 4.091872 -0.402693
v -0.044695 4.018556 -0.219929
v 0.088097 4.018316 -0.220986
v -0.043226 3.981863 -0.027364
v 0.089565 3.981623 -0.028423
v -0.041661 3.983444 0.168657
v 0.091130 3.983205 0.167599
v -0.040059 4.023238 0.360604
v 0.092732 4.022999 0.359545
v -0.038483 4.099716 0.541098
v 0.094308 4.099477 0.540040
v -0.036994 4.209937 0.703204
v 0.095798 4.209699 0.702145
v -0.035646 4.349669 0.840692
v 0.097145 4.349429 0.839633
v -0.034494 4.513537 0.948279
v 0.098298 4.513298 0.947221
v -0.033581 4.695249 1.021829
v 0.099210 4.695010 1.020771
v -0.032942 4.887818 1.058517
v 0.099849 4.887579 1.057459
v -0.032602 5.083846 1.056934
v 0.100189 5.083607 1.055875
v -0.032574 5.275799 1.017138
v 0.100217 5.275559 1.016080
v -0.032859 5.456300 0.940660
v 0.099932 5.456060 0.939602
v -0.033446 5.618412 0.830440
v 0.099346 5.618174 0.829381
v -0.034312 5.755906 0.690711
v 0.098479 5.755668 0.689653
v -0.035425 5.863499 0.526845
v 0.097367 5.863259 0.525787
v -0.036741 5.937054 0.345138
v 0.096051 5.936816 0.344080
v -0.038210 5.973745 0.152574
v 0.094582 5.973507 0.151515
v -0.039774 5.972165 -0.043448
v 0.093017 5.971926 -0.044507
v -0.041375 5.932370 -0.235394
v 0.091416 5.932132 -0.236452
vn -0.0030 0.8270 -0.5623
vn -0.0044 0.7014 -0.7128
vn -0.0057 0.5488 -0.8359
vn -0.0067 0.3752 -0.9269
vn -0.0075 0.1872 -0.9823
vn -0.0080 -0.0081 -0.9999
vn -0.0082 -0.2030 -0.9791
vn -0.0080 -0.3901 -0.9207
vn -0.0076 -0.5623 -0.8269
vn -0.0069 -0.7128 -0.7013
vn -0.0059 -0.8359 -0.5488
vn -0.0047 -0.9269 -0.3752
vn -0.0033 -0.9823 -0.1872
vn -0.0017 -1.0000 0.0081
vn -0.0001 -0.9792 0.2030
vn 0.0015 -0.9208 0.3901
vn 0.0030 -0.8270 0.5623
vn 0.0044 -0.7014 0.7128
vn 0.0057 -0.5488 0.8359
vn 0.0067 -0.3752 0.9269
vn 0.0075 -0.1872 0.9823
vn 0.0080 0.0081 0.9999
vn 0.0082 0.2030 0.9791
vn 0.0080 0.3901 0.9207
vn 0.0076 0.5623 0.8269
vn 0.0069 0.7128 0.7013
vn 0.0059 0.8359 0.5488
vn 0.0047 0.9269 0.3752
vn 0.0033 0.9823 0.1871
vn 0.0017 1.0000 -0.0081
vn 1.0000 -0.0018 -0.0080
vn 0.0001 0.9792 -0.2030
vn -0.0015 0.9208 -0.3901
vn -1.0000 0.0018 0.0080
usemtl Material.001
s off
f 1//1 2//1 4//1 3//1
f 3//2 4//2 6//2 5//2
f 5//3 6//3 8//3 7//3
f 7//4 8//4 10//4 9//4
f 9//5 10//5 12//5 11//5
f 11//6 12//6 14//6 13//6
f 13//7 14//7 16//7 15//7
f 15//8 16//8 18//8 17//8
f 17//9 18//9 20//9 19//9
f 19//10 20//10 22//10 21//10
f 21//11 22//11 24//11 23//11
f 23//12 24//12 26//12 25//12
f 25//13 26//13 28//13 27//13
f 27//14 28//14 30//14 29//14
f 29//15 30//15 32//15 31//15
f 31//16 32//16 34//16 33//16
f 33//17 34//17 36//17 35//17
f 35//18 36//18 38//18 37//18
f 37//19 38//19 40//19 39//19
f 39//20 40//20 42//20 41//20
f 41//21 42//21 44//21 43//21
f 43//22 44//22 46//22 45//22
f 45//23 46//23 48//23 47//23
f 47//24 48//24 50//24 49//24
f 49//25 50//25 52//25 51//25
f 51//26 52//26 54//26 53//26
f 53//27 54//27 56//27 55//27
f 55//28 56//28 58//28 57//28
f 57//29 58//29 60//29 59//29
f 59//30 60//30 62//30 61//30
f 4//31 2//31 64//31 62//31 60//31 58//31 56//31 54//31 52//31 50//31 48//31 46//31 44//31 42//31 40//31 38//31 36//31 34//31 32//31 30//31 28//31 26//31 24//31 22//31 20//31 18//31 16//31 14//31 12//31 10//31 8//31 6//31
f 61//32 62//32 64//32 63//32
f 63//33 64//33 2//33 1//33
f 1//34 3//34 5//34 7//34 9//34 11//34 13//34 15//34 17//34 19//34 21//34 23//34 25//34 27//34 29//34 31//34 33//34 35//34 37//34 39//34 41//34 43//34 45//34 47//34 49//34 51//34 53//34 55//34 57//34 59//34 61//34 63//34
o pillar_Cube
v 0.055294 4.477378 -0.028450
v 0.055294 0.018102 -0.028450
v 0.040742 4.477378 -0.032864
v 0.040742 0.018102 -0.032864
v 0.025609 4.477378 -0.034355
v 0.025609 0.018102 -0.034355
v 0.068704 0.018102 -0.021282
v 0.068704 4.477378 -0.021282
v 0.080459 0.018102 -0.011635
v 0.080459 4.477378 -0.011635
v 0.090106 0.018102 0.000119
v 0.090106 4.477378 0.000119
v 0.097274 0.018102 0.013530
v 0.097274 4.477378 0.013530
v 0.101688 0.018102 0.028081
v 0.101688 4.477378 0.028081
v 0.103178 0.018102 0.043214
v 0.103178 4.477378 0.043214
v 0.101688 0.018102 0.058347
v 0.101688 4.477378 0.058347
v 0.097274 0.018102 0.072899
v 0.097274 4.477378 0.072899
v 0.090106 0.018102 0.086309
v 0.090106 4.477378 0.086309
v 0.080459 0.018102 0.098064
v 0.080459 4.477378 0.098064
v 0.068704 0.018102 0.107711
v 0.068704 4.477378 0.107711
v 0.055294 0.018102 0.114879
v 0.055294 4.477378 0.114879
v 0.040742 0.018102 0.119293
v 0.040742 4.477378 0.119293
v 0.025609 0.018102 0.120783
v 0.025609 4.477378 0.120783
v 0.010476 0.018102 0.119293
v 0.010476 4.477378 0.119293
v -0.004075 0.018102 0.114879
v -0.004075 4.477378 0.114879
v -0.017486 0.018102 0.107711
v -0.017486 4.477378 0.107711
v -0.029240 0.018102 0.098064
v -0.029240 4.477378 0.098064
v -0.038887 0.018102 0.086309
v -0.038887 4.477378 0.086309
v -0.046055 0.018102 0.072899
v -0.046055 4.477378 0.072899
v -0.050469 0.018102 0.058347
v -0.050469 4.477378 0.058347
v -0.051960 0.018102 0.043214
v -0.051960 4.477378 0.043214
v -0.050469 0.018102 0.028081
v -0.050469 4.477378 0.028081
v -0.046055 0.018102 0.013530
v -0.046055 4.477378 0.013530
v -0.038887 0.018102 0.000119
v -0.038887 4.477378 0.000119
v -0.029240 0.018102 -0.011635
v -0.029240 4.477378 -0.011635
v -0.017486 0.018102 -0.021282
v -0.017486 4.477378 -0.021282
v -0.004075 0.018102 -0.028450
v -0.004075 4.477378 -0.028450
v 0.010476 0.018102 -0.032864
v 0.010476 4.477378 -0.032864
vn 0.2903 0.0000 -0.9569
vn 0.0980 0.0000 -0.9952
vn 0.4714 0.0000 -0.8819
vn 0.6344 0.0000 -0.7730
vn 0.7730 0.0000 -0.6344
vn 0.8819 0.0000 -0.4714
vn 0.9569 0.0000 -0.2903
vn 0.9952 0.0000 -0.0980
vn 0.9952 0.0000 0.0980
vn 0.9569 0.0000 0.2903
vn 0.8819 0.0000 0.4714
vn 0.7730 0.0000 0.6344
vn 0.6344 0.0000 0.7730
vn 0.4714 0.0000 0.8819
vn 0.2903 0.0000 0.9569
vn 0.0980 0.0000 0.9952
vn -0.0980 0.0000 0.9952
vn -0.2903 0.0000 0.9569
vn -0.4714 0.0000 0.8819
vn -0.6344 0.0000 0.7730
vn -0.7730 0.0000 0.6344
vn -0.8819 0.0000 0.4714
vn -0.9569 0.0000 0.2903
vn -0.9952 0.0000 0.0980
vn -0.9952 0.0000 -0.0980
vn -0.9569 0.0000 -0.2903
vn -0.8819 0.0000 -0.4714
vn -0.7730 0.0000 -0.6344
vn -0.6344 0.0000 -0.7730
vn -0.4714 0.0000 -0.8819
vn 0.0000 -1.0000 0.0000
vn -0.2903 0.0000 -0.9569
vn -0.0980 0.0000 -0.9952
vn 0.0000 1.0000 -0.0000
usemtl Material
s off
f 68//35 67//35 65//35 66//35
f 70//36 69//36 67//36 68//36
f 66//37 65//37 72//37 71//37
f 71//38 72//38 74//38 73//38
f 73//39 74//39 76//39 75//39
f 75//40 76//40 78//40 77//40
f 77//41 78//41 80//41 79//41
f 79//42 80//42 82//42 81//42
f 81//43 82//43 84//43 83//43
f 83//44 84//44 86//44 85//44
f 85//45 86//45 88//45 87//45
f 87//46 88//46 90//46 89//46
f 89//47 90//47 92//47 91//47
f 91//48 92//48 94//48 93//48
f 93//49 94//49 96//49 95//49
f 95//50 96//50 98//50 97//50
f 97//51 98//51 100//51 99//51
f 99//52 100//52 102//52 101//52
f 101//53 102//53 104//53 103//53
f 103//54 104//54 106//54 105//54
f 105//55 106//55 108//55 107//55
f 107//56 108//56 110//56 109//56
f 109//57 110//57 112//57 111//57
f 111//58 112//58 114//58 113//58
f 113//59 114//59 116//59 115//59
f 115//60 116//60 118//60 117//60
f 117//61 118//61 120//61 119//61
f 119//62 120//62 122//62 121//62
f 121//63 122//63 124//63 123//63
f 123//64 124//64 126//64 125//64
f 70//65 68//65 66//65 71//65 73//65 75//65 77//65 79//65 81//65 83//65 85//65 87//65 89//65 91//65 93//65 95//65 97//65 99//65 101//65 103//65 105//65 107//65 109//65 111//65 113//65 115//65 117//65 119//65 121//65 123//65 125//65 127//65
f 125//66 126//66 128//66 127//66
f 127//67 128//67 69//67 70//67
f 65//68 67//68 69//68 128//68 126//68 124//68 122//68 120//68 118//68 116//68 114//68 112//68 110//68 108//68 106//68 104//68 102//68 100//68 98//68 96//68 94//68 92//68 90//68 88//68 86//68 84//68 82//68 80//68 78//68 76//68 74//68 72//68
